<svg id="svg" xmlns="http://www.w3.org/2000/svg" xmlns:xlink="http://www.w3.org/1999/xlink" width="400" height="92.19047619047618" viewBox="0, 0, 400,92.19047619047618"><g id="svgg"><path id="path0" d="M56.873 8.325 C 50.762 14.315,50.723 14.378,52.140 15.944 C 54.214 18.236,54.811 18.003,59.790 12.972 L 64.295 8.420 75.385 8.210 L 86.476 8.000 86.713 5.143 L 86.949 2.286 74.992 2.286 L 63.035 2.286 56.873 8.325 M39.240 22.855 C 31.767 30.356,31.591 30.476,28.057 30.476 C 23.532 30.476,22.095 32.220,22.095 37.714 C 22.095 44.781,22.449 44.951,37.186 44.964 C 53.701 44.979,53.333 44.684,53.333 57.930 C 53.333 72.560,52.617 73.143,34.631 73.143 L 22.095 73.143 22.095 82.324 L 22.095 91.505 26.476 91.276 L 30.857 91.048 31.238 85.637 C 31.813 77.473,34.476 75.429,44.535 75.429 C 49.785 75.429,50.469 75.244,52.750 73.207 L 55.238 70.985 55.466 52.275 C 55.712 32.148,55.489 30.738,52.000 30.336 C 48.990 29.990,48.768 27.158,51.526 24.279 L 53.656 22.057 50.244 18.645 L 46.833 15.234 39.240 22.855 M84.715 24.381 C 81.983 30.030,82.131 32.197,85.337 33.525 C 90.619 35.713,92.566 31.095,89.302 24.117 L 87.110 19.429 84.715 24.381 M28.190 34.667 C 28.190 36.036,27.780 36.571,26.730 36.571 C 25.177 36.571,24.378 35.285,24.956 33.714 C 25.633 31.874,28.190 32.627,28.190 34.667 M51.241 33.714 C 56.970 38.090,52.215 42.667,41.939 42.667 C 32.087 42.667,28.072 39.047,32.499 34.155 C 34.062 32.428,49.094 32.074,51.241 33.714 M35.048 37.743 C 35.048 39.280,48.823 39.069,49.335 37.524 C 49.573 36.806,47.851 36.571,42.349 36.571 C 36.288 36.571,35.048 36.770,35.048 37.743 M153.143 64.000 L 153.143 90.667 160.762 90.667 L 168.381 90.667 168.381 64.000 L 168.381 37.333 160.762 37.333 L 153.143 37.333 153.143 64.000 M177.524 64.000 L 177.524 90.667 185.524 90.667 L 193.524 90.667 193.524 64.000 L 193.524 37.333 185.524 37.333 L 177.524 37.333 177.524 64.000 M352.943 63.810 L 353.143 90.286 360.952 90.503 L 368.762 90.720 368.762 82.513 L 368.762 74.306 371.269 78.105 C 372.648 80.195,374.949 83.876,376.382 86.286 L 378.989 90.667 387.971 90.667 C 398.684 90.667,398.504 91.537,390.026 80.762 C 386.235 75.943,382.963 71.610,382.756 71.133 C 382.549 70.656,385.696 65.856,389.751 60.466 L 397.123 50.667 388.896 50.449 C 378.622 50.177,379.651 49.654,373.953 58.053 L 369.143 65.143 368.935 51.238 L 368.728 37.333 360.735 37.333 L 352.742 37.333 352.943 63.810 M28.190 40.762 C 28.190 42.159,27.784 42.667,26.667 42.667 C 25.549 42.667,25.143 42.159,25.143 40.762 C 25.143 39.365,25.549 38.857,26.667 38.857 C 27.784 38.857,28.190 39.365,28.190 40.762 M14.675 40.469 C 13.318 40.861,11.453 42.202,10.532 43.448 C 9.124 45.352,8.332 45.714,5.571 45.714 L 2.286 45.714 2.286 56.000 L 2.286 66.286 5.143 66.291 C 6.714 66.293,9.029 66.977,10.286 67.810 C 13.320 69.819,32.000 70.147,32.000 68.190 C 32.000 67.392,31.196 67.048,29.333 67.048 C 26.997 67.048,26.667 66.812,26.667 65.143 C 26.667 63.474,26.997 63.238,29.333 63.238 C 31.196 63.238,32.000 62.893,32.000 62.095 C 32.000 61.297,31.196 60.952,29.333 60.952 C 25.187 60.952,25.360 57.343,29.524 56.998 C 33.191 56.695,33.236 55.309,29.589 55.006 C 26.790 54.772,25.587 53.557,26.574 51.959 C 26.895 51.440,30.232 51.019,35.075 50.886 C 46.296 50.577,45.288 49.232,33.485 48.762 C 22.380 48.320,20.403 47.490,18.959 42.670 C 18.456 40.992,17.842 39.650,17.594 39.688 C 17.346 39.726,16.032 40.077,14.675 40.469 M200.139 40.115 C 199.853 40.401,199.619 43.149,199.619 46.222 L 199.619 51.810 206.476 51.810 L 213.333 51.810 213.333 71.265 L 213.333 90.720 221.143 90.503 L 228.952 90.286 229.156 71.048 L 229.359 51.810 236.236 51.810 L 243.112 51.810 242.889 45.905 L 242.667 40.000 221.663 39.798 C 210.110 39.686,200.425 39.829,200.139 40.115 M84.927 48.492 C 81.499 54.342,82.536 58.667,87.366 58.667 C 90.912 58.667,91.925 55.392,89.915 50.427 C 87.492 44.443,87.336 44.382,84.927 48.492 M47.238 49.802 C 47.238 52.729,44.168 54.857,39.945 54.857 C 35.344 54.857,35.758 54.153,35.686 62.095 C 35.613 69.963,35.110 69.333,41.469 69.333 C 49.386 69.333,49.524 69.137,49.524 57.850 C 49.524 50.280,49.333 48.762,48.381 48.762 C 47.752 48.762,47.238 49.230,47.238 49.802 M258.755 50.646 C 243.183 56.196,243.773 86.227,259.539 90.605 C 264.474 91.975,268.964 91.079,272.633 87.992 C 275.045 85.962,275.810 86.177,275.810 88.889 C 275.810 90.633,275.955 90.667,283.429 90.667 L 291.048 90.667 291.048 70.476 L 291.048 50.286 283.429 50.286 C 275.859 50.286,275.810 50.298,275.810 52.146 C 275.810 54.820,274.766 55.086,272.739 52.928 C 269.682 49.674,264.057 48.756,258.755 50.646 M326.476 50.302 C 322.925 50.824,320.926 51.809,318.921 54.025 C 316.877 56.283,316.190 56.013,316.190 52.952 L 316.190 50.286 308.571 50.286 L 300.952 50.286 300.919 55.810 C 300.850 67.217,300.839 79.802,300.895 85.143 L 300.952 90.667 308.571 90.667 L 316.190 90.667 316.190 78.646 C 316.190 65.516,316.641 63.864,320.480 62.900 C 326.688 61.342,328.381 64.950,328.381 79.733 L 328.381 90.667 336.000 90.667 L 343.619 90.667 343.619 76.667 C 343.619 54.526,339.616 48.370,326.476 50.302 M99.814 61.905 C 99.821 80.253,101.275 85.283,107.707 89.205 C 112.378 92.053,122.313 90.575,125.668 86.532 C 127.240 84.638,128.000 85.117,128.000 88.000 L 128.000 90.667 135.619 90.667 L 143.238 90.667 143.238 70.476 L 143.238 50.286 135.619 50.286 L 128.000 50.286 128.000 61.678 C 128.000 75.761,126.880 78.476,121.072 78.476 C 116.713 78.476,115.810 75.736,115.810 62.511 L 115.810 50.286 107.810 50.286 L 99.810 50.286 99.814 61.905 M272.688 64.571 C 276.054 67.344,275.992 74.147,272.579 76.537 C 269.872 78.434,267.050 78.009,264.830 75.370 C 259.640 69.202,266.637 59.587,272.688 64.571 M63.265 74.617 C 61.972 77.032,63.577 79.238,66.628 79.238 C 68.998 79.238,70.376 81.063,69.785 83.419 L 69.304 85.333 56.697 85.333 C 42.015 85.333,38.220 86.677,42.057 90.514 C 43.247 91.704,84.701 91.820,86.907 90.640 C 90.983 88.458,87.649 85.333,81.244 85.333 C 76.740 85.333,75.504 84.124,76.571 80.762 C 77.001 79.408,77.724 79.238,83.045 79.238 C 90.357 79.238,92.436 77.973,90.640 74.617 C 89.908 73.249,88.925 73.143,76.952 73.143 C 64.980 73.143,63.997 73.249,63.265 74.617 " stroke="none" fill="#000000" fill-rule="evenodd"></path></g></svg>