<svg id="svg" version="1.1" xmlns="http://www.w3.org/2000/svg" xmlns:xlink="http://www.w3.org/1999/xlink" width="400" height="93.12977099236642" viewBox="0, 0, 400,93.12977099236642"><g id="svgg"><path id="path1" d="M64.549 2.669 C 63.446 2.896,61.691 4.076,60.333 5.502 C 60.012 5.838,59.632 6.182,59.489 6.265 C 59.345 6.349,58.993 6.754,58.707 7.167 C 58.421 7.579,57.611 8.404,56.907 9.000 C 55.593 10.112,55.501 10.205,54.089 11.809 C 53.634 12.327,52.866 13.072,52.382 13.466 C 50.890 14.682,50.857 14.943,52.017 16.337 C 54.110 18.853,54.936 18.923,57.125 16.768 C 57.974 15.933,58.911 15.017,59.209 14.733 C 59.506 14.449,60.026 13.924,60.364 13.566 C 60.702 13.209,61.546 12.392,62.240 11.750 C 62.935 11.108,63.859 10.237,64.293 9.814 L 65.083 9.044 70.584 8.921 C 74.629 8.830,76.436 8.852,77.417 9.002 C 78.300 9.137,79.593 9.170,81.250 9.100 C 87.545 8.832,87.290 8.975,87.444 5.644 L 87.550 3.372 87.150 3.144 C 86.831 2.963,85.380 2.914,80.000 2.905 C 76.287 2.898,73.025 2.841,72.750 2.776 C 72.475 2.712,71.892 2.727,71.454 2.809 C 70.754 2.941,68.020 2.837,65.921 2.600 C 65.552 2.558,64.935 2.589,64.549 2.669 M46.144 16.513 C 45.836 16.887,45.329 17.431,45.018 17.721 C 43.710 18.943,41.310 21.286,39.833 22.782 C 38.962 23.664,37.425 25.192,36.417 26.178 C 34.399 28.151,33.957 28.600,32.938 29.709 C 32.092 30.630,31.426 30.760,28.431 30.587 L 26.408 30.471 25.162 31.069 C 22.430 32.382,22.154 33.082,22.132 38.767 L 22.119 42.250 22.663 43.384 C 22.975 44.035,23.393 44.634,23.645 44.790 C 23.886 44.939,24.236 45.196,24.423 45.360 C 25.105 45.959,28.511 46.283,31.316 46.015 C 32.707 45.883,33.895 45.864,34.833 45.961 C 35.612 46.042,36.775 46.059,37.417 45.999 C 39.052 45.847,49.112 46.128,49.900 46.347 C 50.749 46.584,52.194 47.956,52.830 49.130 L 53.324 50.043 53.302 54.996 C 53.289 57.720,53.234 60.279,53.178 60.683 C 53.122 61.086,53.167 62.265,53.276 63.302 C 53.443 64.875,53.437 65.340,53.238 66.102 C 53.107 66.605,53.000 67.301,53.000 67.650 C 53.000 68.467,52.724 69.265,52.182 70.015 C 51.945 70.344,51.525 70.927,51.250 71.312 C 49.962 73.114,45.227 74.372,41.583 73.881 C 40.461 73.730,30.231 73.738,25.104 73.894 C 23.108 73.955,22.572 74.023,22.354 74.241 C 21.992 74.604,22.034 91.764,22.398 92.134 C 22.627 92.365,29.851 92.461,30.717 92.243 C 31.375 92.078,31.412 91.843,31.428 87.750 C 31.450 82.194,32.005 80.553,34.496 78.680 C 36.988 76.806,38.319 76.579,45.250 76.848 C 50.553 77.054,53.232 75.854,54.906 72.522 C 55.945 70.453,56.010 70.130,56.186 66.167 C 56.344 62.612,56.351 61.245,56.249 54.333 C 56.220 52.362,56.265 47.895,56.350 44.406 C 56.634 32.713,56.113 31.105,51.917 30.727 C 50.076 30.562,49.756 29.993,50.252 27.766 C 50.516 26.576,50.608 26.416,51.709 25.207 C 54.151 22.525,54.218 22.829,50.346 18.974 C 46.867 15.510,46.938 15.551,46.144 16.513 M86.627 21.625 C 86.304 22.152,85.797 23.071,85.501 23.667 C 85.205 24.262,84.787 24.985,84.572 25.272 C 82.438 28.115,82.542 32.705,84.779 34.413 C 87.561 36.537,91.048 34.974,92.021 31.167 C 92.265 30.214,91.176 26.590,90.208 25.134 C 89.885 24.648,89.284 23.613,88.874 22.833 C 87.500 20.230,87.486 20.222,86.627 21.625 M49.950 34.069 C 53.617 35.250,54.282 39.069,51.325 41.958 C 50.245 43.013,49.301 43.219,46.167 43.083 C 44.654 43.018,43.079 42.971,42.667 42.980 C 34.170 43.156,33.518 42.969,31.872 39.880 C 31.126 38.481,31.166 38.047,32.217 36.166 C 33.399 34.048,33.752 33.860,36.743 33.751 C 37.920 33.708,38.921 33.635,38.968 33.588 C 39.314 33.242,48.652 33.651,49.950 34.069 M27.654 33.877 C 28.997 34.563,28.383 36.617,26.785 36.782 C 25.298 36.935,24.733 35.996,25.344 34.389 C 25.629 33.638,26.714 33.398,27.654 33.877 M37.750 36.856 C 35.857 36.991,35.274 37.208,34.842 37.939 C 34.462 38.583,34.657 39.309,35.286 39.595 C 35.611 39.743,46.040 39.824,47.910 39.694 C 50.095 39.541,50.631 37.965,48.833 36.981 C 48.380 36.733,40.707 36.647,37.750 36.856 M177.685 38.042 C 177.085 38.197,176.998 38.415,177.162 39.346 C 177.233 39.752,177.267 41.358,177.237 42.917 C 177.207 44.475,177.195 46.538,177.209 47.500 C 177.223 48.462,177.211 50.525,177.183 52.083 C 177.155 53.642,177.138 55.254,177.145 55.667 C 177.156 56.237,177.159 73.349,177.150 79.667 C 177.149 80.171,177.198 81.846,177.258 83.390 C 177.331 85.258,177.306 86.429,177.184 86.890 C 176.972 87.686,177.311 91.211,177.630 91.530 C 177.950 91.850,179.534 92.075,181.000 92.009 C 181.779 91.974,182.979 91.953,183.667 91.961 C 184.354 91.969,186.709 91.996,188.899 92.019 L 192.881 92.062 193.293 91.583 C 193.692 91.119,193.700 91.056,193.567 89.594 C 193.491 88.763,193.442 87.746,193.459 87.333 C 193.476 86.921,193.485 86.058,193.478 85.417 C 193.472 84.775,193.467 83.725,193.468 83.083 C 193.471 76.538,193.484 73.141,193.513 70.750 C 193.560 66.808,193.563 65.699,193.537 60.667 C 193.525 58.237,193.521 55.875,193.528 55.417 C 193.566 52.995,193.564 52.296,193.516 51.000 C 193.439 48.957,193.443 47.276,193.537 42.614 L 193.620 38.477 193.245 38.231 C 192.831 37.960,178.665 37.787,177.685 38.042 M152.713 38.292 C 152.266 38.693,151.934 40.465,152.151 41.291 C 152.248 41.660,152.276 43.080,152.219 44.750 C 152.165 46.308,152.145 49.533,152.174 51.917 C 152.233 56.847,152.235 59.145,152.184 60.583 C 152.165 61.133,152.146 63.721,152.142 66.333 C 152.139 68.946,152.133 71.683,152.128 72.417 C 152.123 73.150,152.129 75.813,152.142 78.333 C 152.154 80.854,152.152 83.292,152.137 83.750 C 152.123 84.208,152.171 85.081,152.245 85.690 C 152.332 86.413,152.308 87.169,152.175 87.870 C 151.769 90.026,152.406 91.738,153.626 91.765 C 153.997 91.774,154.647 91.878,155.072 91.997 C 155.621 92.151,156.263 92.176,157.297 92.085 C 158.096 92.014,159.275 91.982,159.917 92.014 C 161.114 92.074,161.418 92.070,165.417 91.947 L 167.750 91.875 168.051 91.312 C 168.301 90.844,168.349 90.361,168.340 88.417 C 168.304 81.206,168.334 78.839,168.467 78.145 C 168.558 77.677,168.553 76.981,168.455 76.373 C 168.354 75.745,168.351 75.037,168.448 74.474 C 168.559 73.831,168.542 73.340,168.388 72.746 C 168.221 72.103,168.210 71.438,168.341 69.780 C 168.460 68.280,168.457 67.346,168.330 66.650 C 168.208 65.976,168.202 65.270,168.311 64.454 C 168.400 63.786,168.415 62.644,168.345 61.889 C 168.273 61.109,168.289 60.113,168.383 59.556 C 168.561 58.504,168.561 58.556,168.397 54.500 C 168.336 52.987,168.315 50.137,168.351 48.167 C 168.490 40.568,168.385 38.479,167.854 38.222 C 167.217 37.914,153.060 37.979,152.713 38.292 M353.510 38.241 C 353.230 38.582,352.955 41.648,353.079 43.046 C 353.146 43.800,353.185 44.754,353.166 45.167 C 353.148 45.579,353.137 46.179,353.142 46.500 C 353.147 46.821,353.151 48.508,353.150 50.250 C 353.149 54.393,353.151 55.041,353.178 57.417 C 353.207 60.090,353.200 62.487,353.147 67.417 C 353.104 71.450,353.107 72.014,353.178 74.250 C 353.288 77.721,353.142 85.300,352.959 85.600 C 352.909 85.682,352.968 86.313,353.092 87.000 C 353.215 87.688,353.321 88.775,353.327 89.417 C 353.347 91.575,353.373 91.592,356.907 91.829 C 362.616 92.212,368.827 92.043,369.173 91.495 C 369.354 91.210,369.382 90.081,369.402 82.467 C 369.421 75.334,369.594 75.129,371.926 79.500 C 372.440 80.462,373.065 81.475,373.316 81.750 C 374.058 82.565,376.159 85.989,376.404 86.785 C 376.513 87.135,378.657 90.352,379.286 91.107 C 379.857 91.793,380.482 91.981,381.583 91.799 C 382.199 91.697,383.706 91.684,385.500 91.764 C 387.104 91.835,389.017 91.866,389.750 91.831 C 392.089 91.722,395.384 91.754,396.417 91.897 C 398.350 92.164,398.582 91.331,397.138 89.306 C 396.833 88.878,396.358 88.212,396.083 87.825 C 395.808 87.438,395.011 86.509,394.311 85.760 C 393.611 85.011,392.832 83.989,392.581 83.490 C 392.330 82.992,391.583 82.015,390.921 81.320 C 390.259 80.626,389.393 79.576,388.997 78.987 C 388.600 78.398,388.230 77.879,388.175 77.833 C 387.971 77.662,386.512 75.878,385.721 74.833 C 385.271 74.237,384.624 73.388,384.284 72.946 C 383.535 71.970,383.482 71.304,384.087 70.485 C 384.319 70.172,384.900 69.341,385.379 68.637 C 385.858 67.933,386.810 66.699,387.494 65.895 C 388.712 64.465,390.167 62.468,390.167 62.226 C 390.167 62.160,390.456 61.761,390.811 61.341 C 391.165 60.921,391.746 60.138,392.102 59.602 C 392.459 59.066,392.869 58.448,393.015 58.229 C 393.161 58.010,393.573 57.548,393.932 57.203 C 394.290 56.857,394.828 56.159,395.127 55.652 C 395.426 55.144,396.028 54.322,396.466 53.823 C 399.286 50.610,399.815 50.825,389.094 50.827 C 379.198 50.829,380.047 50.669,378.616 52.802 C 378.021 53.690,377.301 54.637,377.017 54.906 C 376.733 55.175,376.500 55.481,376.500 55.586 C 376.500 55.926,374.023 59.659,373.240 60.500 C 372.941 60.821,372.575 61.379,372.427 61.740 C 372.129 62.465,371.402 63.515,370.481 64.551 L 369.878 65.228 369.647 64.822 C 369.456 64.487,369.417 62.187,369.417 51.467 C 369.417 41.061,369.374 38.474,369.200 38.300 C 368.918 38.018,353.739 37.961,353.510 38.241 M28.074 40.037 C 28.399 40.502,28.407 41.500,28.092 42.255 C 27.402 43.905,24.818 42.365,25.268 40.572 C 25.486 39.701,27.561 39.306,28.074 40.037 M199.924 40.491 C 199.472 40.991,199.290 46.113,199.496 52.530 C 199.505 52.791,200.397 52.864,204.548 52.941 C 210.334 53.049,210.603 53.051,211.647 52.989 C 213.126 52.901,213.099 52.803,213.036 58.179 C 213.007 60.693,212.974 62.975,212.964 63.250 C 212.954 63.525,213.031 64.920,213.134 66.351 C 213.255 68.019,213.268 69.304,213.170 69.934 C 213.086 70.475,213.054 73.129,213.098 75.833 C 213.196 81.815,213.187 84.427,213.055 87.939 C 212.896 92.182,212.373 91.844,219.250 91.947 C 222.092 91.989,224.679 92.034,225.000 92.047 C 227.495 92.146,228.825 92.001,229.087 91.601 C 229.315 91.253,229.359 89.848,229.434 80.559 C 229.481 74.706,229.531 69.617,229.544 69.250 C 229.557 68.883,229.475 67.249,229.362 65.618 C 229.248 63.987,229.193 62.592,229.238 62.519 C 229.328 62.375,229.552 55.882,229.509 54.692 C 229.451 53.078,229.693 53.028,238.243 52.903 C 242.159 52.845,242.597 52.810,242.873 52.535 C 243.153 52.254,243.487 46.320,243.358 43.917 C 243.343 43.642,243.328 42.798,243.325 42.043 C 243.318 40.063,243.923 40.193,235.083 40.262 C 226.666 40.328,219.760 40.343,213.083 40.311 C 210.517 40.298,207.029 40.308,205.333 40.333 C 203.637 40.358,201.800 40.323,201.249 40.255 C 200.351 40.145,200.216 40.169,199.924 40.491 M16.083 40.678 C 15.442 40.851,14.767 40.995,14.583 40.998 C 13.365 41.018,10.762 43.041,10.064 44.513 C 9.397 45.916,9.412 45.911,5.603 45.952 C 3.781 45.972,2.243 46.035,2.186 46.091 C 1.995 46.282,1.859 53.548,1.953 58.583 C 2.004 61.333,2.029 64.317,2.008 65.215 C 1.978 66.483,2.030 66.937,2.239 67.256 L 2.508 67.667 5.680 67.667 L 8.853 67.667 9.718 68.484 C 11.242 69.924,14.551 70.912,17.667 70.857 C 27.535 70.684,29.006 70.682,29.794 70.844 C 31.729 71.242,33.539 69.576,32.529 68.328 C 32.255 67.989,31.983 67.931,29.833 67.750 C 27.024 67.513,26.732 67.344,26.880 66.037 C 27.018 64.810,27.228 64.701,29.586 64.638 C 31.894 64.577,32.531 64.323,32.638 63.422 C 32.807 61.990,32.231 61.667,29.508 61.667 C 26.910 61.667,26.565 61.384,26.930 59.557 C 27.153 58.443,27.386 58.331,29.586 58.287 C 32.291 58.232,33.403 57.601,32.868 56.425 C 32.501 55.621,31.953 55.436,29.724 55.362 C 27.225 55.278,26.831 55.017,26.836 53.446 C 26.840 52.113,26.898 52.074,28.786 52.141 C 31.588 52.240,32.117 52.238,37.417 52.104 C 42.971 51.963,43.386 51.900,43.649 51.145 C 44.345 49.150,43.079 48.971,30.397 49.271 C 24.162 49.418,22.775 48.860,20.015 45.090 C 19.353 44.186,19.000 42.986,19.000 41.636 C 19.000 40.229,18.436 40.044,16.083 40.678 M87.125 45.625 C 86.677 46.127,85.167 48.709,85.167 48.972 C 85.167 49.110,84.953 49.604,84.692 50.070 C 84.431 50.536,84.171 51.109,84.114 51.344 C 84.056 51.579,83.859 51.945,83.675 52.156 C 82.566 53.436,82.484 56.102,83.496 57.993 C 84.206 59.320,87.481 60.527,88.689 59.908 C 91.245 58.598,92.322 56.533,91.783 53.975 C 91.641 53.301,91.480 52.478,91.425 52.145 C 91.370 51.812,91.105 51.235,90.835 50.862 C 90.565 50.490,90.211 49.933,90.047 49.624 C 89.078 47.797,88.500 46.557,88.500 46.308 C 88.500 45.711,87.494 45.212,87.125 45.625 M47.375 49.353 C 46.782 49.524,46.777 49.537,46.827 50.768 C 46.959 54.023,44.648 55.544,39.676 55.476 C 35.972 55.425,36.007 55.407,36.002 57.335 C 36.001 57.991,35.881 58.476,35.583 59.035 C 35.083 59.974,35.064 60.376,35.485 61.064 C 36.244 62.304,36.255 64.273,35.508 65.322 C 35.076 65.928,35.073 66.672,35.499 67.371 C 35.719 67.731,35.832 68.211,35.833 68.784 C 35.834 70.687,35.929 70.732,40.000 70.750 C 41.787 70.758,43.677 70.825,44.200 70.900 C 45.329 71.062,46.855 70.554,48.223 69.561 C 49.950 68.307,50.174 66.786,50.035 57.250 C 49.996 54.592,49.972 51.967,49.981 51.417 C 50.013 49.440,49.228 48.818,47.375 49.353 M260.917 50.497 C 259.902 50.605,258.070 51.179,256.417 51.908 C 255.356 52.376,250.612 57.033,250.421 57.794 C 250.366 58.011,249.984 58.652,249.571 59.219 C 249.158 59.786,248.782 60.438,248.735 60.667 C 248.688 60.896,248.396 62.058,248.084 63.250 C 247.028 67.292,246.939 68.105,247.052 72.707 L 247.154 76.831 247.764 78.540 C 248.100 79.481,248.483 80.587,248.616 81.000 C 248.749 81.412,248.941 81.900,249.042 82.083 C 249.144 82.267,249.637 83.229,250.139 84.223 C 251.111 86.146,253.226 88.582,254.752 89.537 C 255.120 89.767,255.523 90.077,255.647 90.227 C 255.772 90.376,256.242 90.608,256.692 90.742 C 257.143 90.876,257.727 91.139,257.990 91.326 C 258.253 91.513,258.627 91.667,258.822 91.667 C 259.016 91.667,259.792 91.831,260.546 92.032 C 262.748 92.618,267.357 92.459,269.094 91.736 C 270.129 91.305,273.397 89.054,274.061 88.314 C 275.086 87.172,275.393 87.389,275.521 89.347 C 275.683 91.832,275.712 91.853,278.750 91.800 C 279.830 91.780,280.953 91.858,281.482 91.989 C 282.191 92.164,282.967 92.177,285.149 92.050 C 286.671 91.961,288.479 91.889,289.167 91.889 C 290.691 91.891,291.262 91.760,291.408 91.379 C 291.670 90.696,291.810 87.597,291.662 85.774 C 291.576 84.718,291.541 82.781,291.584 81.469 C 291.628 80.157,291.652 77.846,291.637 76.333 C 291.594 71.937,291.599 70.333,291.659 69.000 C 291.709 67.881,291.727 65.444,291.694 64.333 C 291.687 64.104,291.692 62.754,291.705 61.333 C 291.733 58.358,291.731 58.263,291.575 54.212 C 291.499 52.213,291.392 51.117,291.262 51.010 C 291.025 50.814,276.270 50.667,275.959 50.858 C 275.818 50.945,275.723 51.639,275.667 52.985 C 275.546 55.874,275.345 55.926,273.189 53.634 C 270.641 50.925,266.614 49.896,260.917 50.497 M327.978 50.578 C 327.935 50.620,327.192 50.774,326.325 50.919 C 323.113 51.457,321.369 52.336,318.621 54.803 C 316.925 56.326,316.833 56.268,316.833 53.660 C 316.833 52.683,316.751 51.647,316.650 51.358 L 316.467 50.833 313.525 50.796 C 311.907 50.776,310.208 50.763,309.750 50.767 C 308.063 50.784,303.546 50.784,302.309 50.767 C 300.099 50.737,300.246 50.138,300.596 57.722 C 300.660 59.110,300.619 60.367,300.480 61.305 C 300.362 62.100,300.275 63.050,300.287 63.417 C 300.299 63.783,300.348 65.283,300.396 66.750 C 300.516 70.392,300.530 73.900,300.437 77.113 C 300.394 78.596,300.412 80.696,300.478 81.779 C 300.544 82.863,300.531 85.087,300.449 86.721 C 300.285 89.975,300.362 90.959,300.822 91.527 L 301.126 91.903 308.727 91.898 C 312.908 91.896,316.373 91.849,316.429 91.794 C 316.745 91.477,316.811 89.397,316.821 79.433 C 316.827 73.374,316.898 68.190,316.977 67.912 C 317.355 66.595,318.589 64.996,319.672 64.420 C 321.296 63.556,324.733 63.712,325.792 64.698 C 326.044 64.932,326.461 65.258,326.719 65.421 C 328.146 66.327,328.680 69.340,328.348 74.613 C 328.249 76.188,328.205 77.575,328.251 77.697 C 328.296 77.818,328.352 80.970,328.375 84.703 C 328.412 90.526,328.454 91.525,328.672 91.743 C 328.897 91.968,329.339 91.975,332.451 91.801 C 335.361 91.638,336.261 91.644,337.613 91.835 C 339.448 92.094,342.693 92.096,343.651 91.838 C 344.829 91.520,344.830 91.516,344.667 87.590 C 344.587 85.671,344.552 83.909,344.589 83.675 C 344.943 81.454,344.700 66.994,344.264 64.333 C 344.137 63.554,344.034 62.538,344.036 62.076 C 344.039 61.471,343.900 60.957,343.543 60.243 C 343.269 59.697,342.952 58.961,342.838 58.609 C 342.630 57.966,341.423 56.081,340.766 55.373 C 338.351 52.766,335.856 51.175,334.168 51.164 C 333.938 51.162,333.188 51.014,332.500 50.833 C 331.358 50.534,328.200 50.355,327.978 50.578 M101.388 50.833 C 100.456 50.879,99.634 50.976,99.562 51.049 C 99.394 51.217,99.269 53.676,99.297 56.250 C 99.309 57.350,99.350 62.600,99.387 67.917 C 99.455 77.504,99.560 79.536,100.076 81.292 C 100.218 81.773,100.436 82.530,100.562 82.975 C 101.600 86.652,105.179 89.986,109.917 91.691 C 114.643 93.392,121.625 91.683,124.989 88.002 C 126.781 86.041,126.998 86.120,127.004 88.734 C 127.008 90.716,127.371 91.818,128.034 91.855 C 128.883 91.902,133.187 91.959,134.750 91.943 C 135.667 91.934,136.867 91.959,137.417 91.998 C 137.967 92.038,139.408 92.073,140.619 92.077 C 143.493 92.085,143.441 92.131,143.350 89.702 C 143.314 88.720,143.286 87.354,143.288 86.667 C 143.290 85.979,143.323 77.954,143.360 68.833 C 143.397 59.712,143.373 52.085,143.305 51.884 C 142.983 50.927,142.921 50.920,134.902 50.882 C 126.197 50.842,126.897 50.665,126.948 52.892 C 126.973 54.015,126.969 59.172,126.938 64.917 C 126.935 65.558,126.983 66.871,127.046 67.833 C 127.109 68.796,127.076 70.854,126.973 72.408 L 126.785 75.233 125.762 76.575 C 123.017 80.175,118.756 79.979,116.448 76.147 C 115.461 74.508,115.419 74.072,115.450 65.750 C 115.479 57.933,115.482 56.032,115.470 54.917 C 115.465 54.550,115.485 53.800,115.514 53.250 C 115.572 52.118,115.288 51.088,114.867 50.908 C 114.540 50.768,103.918 50.709,101.388 50.833 M271.349 64.742 C 274.397 66.273,275.667 68.557,275.280 71.813 C 274.824 75.654,273.981 77.036,271.563 77.906 C 269.302 78.720,265.984 77.858,264.926 76.181 C 263.139 73.351,262.839 70.310,264.092 67.725 C 265.465 64.893,268.866 63.495,271.349 64.742 M66.082 73.998 C 64.177 74.163,63.462 74.564,63.106 75.667 C 62.247 78.329,63.329 79.838,66.215 79.998 C 69.186 80.163,70.650 81.630,70.244 84.036 C 69.888 86.143,68.538 86.390,58.500 86.184 C 57.813 86.170,55.487 86.198,53.333 86.248 C 51.179 86.297,49.267 86.336,49.083 86.333 C 44.407 86.263,43.697 86.313,42.604 86.785 C 40.199 87.823,40.278 90.735,42.750 92.120 C 43.244 92.397,52.267 92.452,76.367 92.325 C 78.631 92.313,80.551 92.345,80.634 92.397 C 81.137 92.707,87.149 92.222,87.731 91.824 C 89.471 90.635,89.215 87.890,87.269 86.869 C 86.429 86.429,86.357 86.421,82.386 86.336 L 78.355 86.250 77.844 85.761 C 77.496 85.427,77.192 84.837,76.887 83.900 L 76.440 82.528 76.845 81.744 C 77.153 81.148,77.450 80.854,78.083 80.521 L 78.917 80.083 84.213 80.143 C 90.095 80.210,90.148 80.202,90.983 79.162 C 92.338 77.477,92.154 75.328,90.576 74.403 L 89.820 73.960 78.702 73.914 C 72.587 73.889,66.908 73.926,66.082 73.998 " stroke="none" fill="#f7f7f7" fill-rule="evenodd"></path></g></svg>